<?xml version="1.0" encoding="utf-8"?>
<!-- Generator: Adobe Illustrator 25.4.1, SVG Export Plug-In . SVG Version: 6.00 Build 0)  -->
<svg version="1.1" id="Layer_1" xmlns="http://www.w3.org/2000/svg" xmlns:xlink="http://www.w3.org/1999/xlink" x="0px" y="0px"
	 viewBox="0 0 123.7 57" style="enable-background:new 0 0 123.7 57;" xml:space="preserve">
<style type="text/css">
	.st0{fill-rule:evenodd;clip-rule:evenodd;fill:#0046AD;}
</style>
<path class="st0" d="M91.4,47.8v4.4c0,1.5,0.2,2.4,1.3,2.4c0.8,0,1.3-0.8,1.3-2.5v-4.4h2.2v5.1c0,2.5-1.7,3.5-3.7,3.5
	c-2.2,0-3.8-0.9-3.8-3.5v-5.2C88.8,47.8,91.4,47.8,91.4,47.8z M63.3,47.7c1.1,0,1.9,0.4,2.2,0.6l-0.7,1.3c-0.3-0.2-0.8-0.3-1.3-0.3
	c-0.5,0-0.8,0.2-0.8,0.5c0,0.5,0.7,0.9,1.5,1.6c1.1,1,1.4,1.7,1.4,2.6c0,0.8-0.6,2.5-3.2,2.5c-1,0-2-0.2-2.7-0.8l0.8-1.4
	c0.4,0.3,0.9,0.6,1.5,0.6c0.5,0,1.1-0.3,1.1-0.9c0-0.7-0.8-1.2-1.5-1.8c-0.9-0.8-1.4-1.2-1.4-2.3C60.4,48.6,61.7,47.7,63.3,47.7z
	 M112,47.8v1.6h-2.6v1.7h2.5v1.6h-2.5v2.1h3.1v1.6h-5.7v-8.5C106.9,47.8,112,47.8,112,47.8z M105.3,47.8v1.6h-2.5v6.9h-2.6v-6.9
	h-2.5v-1.6C97.8,47.8,105.3,47.8,105.3,47.8z M87.3,47.8v1.6h-2.5v6.9h-2.6v-6.9h-2.5v-1.6H87.3L87.3,47.8z M74.1,47.8v1.6h-2.5v6.9
	H69v-6.9h-2.5v-1.6C66.6,47.8,74.1,47.8,74.1,47.8z M53,47.8c1.2,1.5,3.1,3.7,3.7,4.9h0v-4.9h2v8.5H57c-1.3-1.5-3-3.6-3.8-5h0v5h-2
	v-8.5H53L53,47.8z M34.8,2.1c0.3,0.7,2.6,5.6-0.4,11.4c-1.9,3.8-5.3,5.7-7.9,5.8c-5.3,0.1-6.4-5.6-6.4-6.5c0.1-0.7,0.4-0.5,0.6-0.1
	c0.2,0.4,1.4,4.1,5.3,4.5c3.5,0.3,9.5-5.4,7.4-12.9c-0.6-2.1-1-2-2.1-1.7C25.3,4.1,6.8,12,2.5,30.9c-1.1,4.7-0.2,18.9,13.4,22.6
	c9.2,2.6,21.4-1.9,23.6-15.3c1.3-7.8-2.5-14.6-10-15.7c-3.8-0.6-9.1,0.7-9.6,6.3c-0.5,5.5,4.5,6.9,7,7c2.5,0.1,5.1-1.8,6.8-5.5
	c0.1-0.2,0.4-0.3,0.5,0.1c0,1.6-1.7,6.8-7.9,8.9c-5.7,1.9-10.3-0.6-12.7-3c-2.7-2.6-4.1-6.6-4.3-9.7c0-0.7,0.5-0.7,0.7-0.1
	c0.2,0.9,0.9,5.2,5.1,8.6c5,4.1,10.5,2.4,10.5,2.4s-8.3-1-7.6-9.4c0.5-5.9,6.3-8.2,11.3-7.9c2.6,0.1,13.6,3,12.5,16.7
	C40.1,51.3,29,56.3,20.9,56.3C6.9,56.4-4,43,1.4,27.2C7.4,9.5,26.1,1.6,31.6,0.5C33.9,0,34.4,1,34.8,2.1z M78.3,47.8v8.5h-2.6v-8.5
	H78.3z M49.1,47.8v8.5h-2.6v-8.5H49.1z M99.9,31.8c0.6,0,1.6,0.2,2.2,0.4l-0.6,1.5c-0.4-0.1-1.2-0.2-1.4-0.2c-1.2,0-2.5,0.8-2.5,2.6
	c0,1.8,1.3,2.6,2.6,2.6c0.5,0,1-0.1,1.4-0.2l0.5,1.6c-0.7,0.2-1.4,0.4-2.1,0.4c-2.8,0-5.2-1.7-5.2-4.5
	C94.9,33.6,97.1,31.8,99.9,31.8z M50.4,32c2,0,3.1,0.9,3.1,2.3c0,1.3-0.6,2.1-1.4,2.5l1.9,3.6l-2.7,0.3l-1.3-3.4h-0.7v3.2h-2.6V32
	C46.6,32,50.4,32,50.4,32z M90.4,32c2,0,3.1,0.9,3.1,2.3c0,1.3-0.6,2.1-1.4,2.5l1.9,3.6l-2.7,0.3l-1.3-3.4h-0.7v3.2h-2.6V32H90.4z
	 M65.7,31.8c1.1,0,1.9,0.4,2.2,0.6l-0.7,1.3c-0.3-0.2-0.8-0.3-1.3-0.3c-0.5,0-0.8,0.2-0.8,0.5c0,0.5,0.7,0.9,1.5,1.6
	c1.1,1,1.4,1.7,1.4,2.6c0,0.8-0.6,2.5-3.2,2.5c-1,0-2-0.2-2.7-0.8l0.8-1.4c0.4,0.3,0.8,0.6,1.5,0.6c0.5,0,1.1-0.3,1.1-0.9
	c0-0.7-0.8-1.2-1.5-1.8c-0.9-0.8-1.4-1.2-1.4-2.3C62.7,32.8,64.1,31.8,65.7,31.8z M60.7,32v1.6h-2.6v1.7h2.5v1.6h-2.5v2.1h3.1v1.6
	h-5.7V32L60.7,32L60.7,32z M75.1,32v1.6h-2.6v1.7h2.5v1.6h-2.5v2.1h3.1v1.6H70V32L75.1,32L75.1,32z M106.5,32v3h2.6v-3h2.6v8.4h-2.6
	v-3.9h-2.6v3.9H104V32H106.5z M82.1,32l3.2,8.5h-2.7l-0.7-2h-2.6l-0.8,2h-2l3.5-8.5C79.9,32,82.1,32,82.1,32z M80.7,34.1L80.7,34.1
	c-0.4,1.2-0.6,2-1,3h1.8C81.2,36.1,81,35.3,80.7,34.1z M49.8,33.6h-0.7v2.1h0.7c0.7,0,1-0.6,1-1C50.9,33.8,50.4,33.6,49.8,33.6
	L49.8,33.6z M89.9,33.6h-0.7v2.1h0.7c0.7,0,1-0.6,1-1C90.9,33.8,90.4,33.6,89.9,33.6z M85.7,16c0.6,0,1.6,0.2,2.2,0.4l-0.6,1.5
	c-0.4-0.1-1.2-0.2-1.4-0.2c-1.2,0-2.5,0.8-2.5,2.6c0,1.8,1.3,2.6,2.6,2.6c0.5,0,1.1-0.1,1.4-0.2l0.5,1.6c-0.7,0.2-1.4,0.4-2.1,0.4
	c-2.8,0-5.2-1.7-5.2-4.5C80.7,17.8,82.8,16,85.7,16z M64.4,16.2v1.6h-2.6v1.7h2.5V21h-2.5v2.1h3.1v1.6h-5.7v-8.5H64.4L64.4,16.2z
	 M94.1,16.2l3.2,8.5h-2.7l-0.7-2h-2.6l-0.8,2h-2l3.5-8.5H94.1L94.1,16.2z M78.9,16.2v8.5h-2.6v-8.5H78.9z M69.9,16.2
	c3.4,0,4.7,2,4.7,4c0,3.1-2.3,4.5-4.8,4.5h-3.2v-8.5C66.6,16.2,69.9,16.2,69.9,16.2z M50,16.2c0.6,1.6,1.2,3.2,1.7,5.2h0
	c0.5-2,1.1-3.6,1.7-5.2h3.4v8.5h-2.6v-6h0c-0.7,2.2-1.3,4.1-2,6h-1.6c-0.7-1.9-1.4-3.7-2.1-6h0v6h-2v-8.5H50z M101.3,16.2v6.9h3.1
	v1.6h-5.7v-8.5H101.3L101.3,16.2z M69.9,17.8h-0.7v5.3h0.7c1.5,0,2.2-1.2,2.2-2.9C72,18.6,71,17.8,69.9,17.8L69.9,17.8z M92.7,18.2
	L92.7,18.2c-0.4,1.2-0.6,2-1,3h1.8C93.3,20.3,93,19.5,92.7,18.2z M119.6,0.3c1.1,0,1.9,0.4,2.2,0.6l-0.7,1.3
	c-0.3-0.2-0.8-0.3-1.3-0.3c-0.5,0-0.8,0.2-0.8,0.5c0,0.5,0.7,0.9,1.5,1.6c1.1,1,1.4,1.7,1.4,2.6c0,0.8-0.6,2.5-3.2,2.5
	c-1,0-2-0.2-2.7-0.8l0.8-1.4c0.4,0.3,0.8,0.6,1.5,0.6c0.5,0,1.1-0.3,1.1-0.9c0-0.7-0.8-1.2-1.5-1.8c-0.9-0.8-1.4-1.2-1.4-2.3
	C116.7,1.3,118,0.3,119.6,0.3z M51.1,0.3c0.6,0,1.6,0.2,2.2,0.4l-0.6,1.5c-0.4-0.1-1.2-0.2-1.4-0.2c-1.2,0-2.5,0.8-2.5,2.6
	c0,1.8,1.3,2.6,2.6,2.6c0.5,0,1.1-0.1,1.4-0.2l0.5,1.6C52.7,9,52,9.1,51.3,9.1c-2.8,0-5.2-1.7-5.2-4.5C46.1,2.1,48.2,0.3,51.1,0.3z
	 M91.1,0.5c2,0,3.1,0.9,3.1,2.3c0,1.3-0.6,2.1-1.4,2.5l1.9,3.6l-2.7,0.3l-1.3-3.4h-0.7V9h-2.6V0.5L91.1,0.5L91.1,0.5z M57.8,0.5v3
	h2.6v-3H63V9h-2.6V5.1h-2.6V9h-2.6V0.5C55.2,0.5,57.8,0.5,57.8,0.5z M68.2,0.5V9h-2.6V0.5C65.7,0.5,68.2,0.5,68.2,0.5z M73.2,0.5
	v6.9h3.1V9h-5.7V0.5C70.7,0.5,73.2,0.5,73.2,0.5z M81.1,0.5c3.4,0,4.7,2,4.7,4C85.8,7.6,83.5,9,81,9h-3.2V0.5
	C77.8,0.5,81.1,0.5,81.1,0.5z M101.2,0.5v1.6h-2.6v1.7h2.5v1.6h-2.5v2.1h3.1V9h-5.7V0.5C96.1,0.5,101.2,0.5,101.2,0.5z M105.4,0.5
	c1.2,1.5,3.1,3.7,3.7,4.9h0V0.5h2V9h-1.7c-1.3-1.5-3-3.6-3.8-5h0v5h-2V0.5C103.5,0.5,105.4,0.5,105.4,0.5z M81.1,2.1h-0.7v5.3H81
	c1.5,0,2.2-1.2,2.2-2.9C83.1,3,82.2,2.1,81.1,2.1L81.1,2.1z M90.5,2.1h-0.7v2.1h0.7c0.7,0,1-0.6,1-1C91.6,2.3,91.1,2.1,90.5,2.1
	L90.5,2.1z M114.3,0.1c0.4,0,0.9,0.4,0.3,1.4l-1.2,2.1l-0.8-0.3l0.6-2C113.3,0.5,113.6,0.1,114.3,0.1L114.3,0.1z"/>
</svg>
